# xmcd
#
# Track frame offsets: 
#        150
#        15560
#        34582
#        78070
#        90132
#        113587
#        128952
#        156300
#        172680
#        189052
#        199465
#
# Disc length: 3004 seconds
#
# Revision: 2
# Processed by: cddbd v1.5.1PL0 Copyright (c) Steve Scherf et al.
# Submitted via: ExactAudioCopy v0.90b4
#
DISCID=700bba0b
DTITLE=Katie Webster - Two Fisted Mama
DYEAR=1989
DGENRE=Blues
TTITLE0=Two-fisted Mama
TTITLE1=Stood Up Again
TTITLE2=Red Negligee
TTITLE3=C.Q. Boogie
TTITLE4=Never Let Me Go
TTITLE5=Love Deluxe
TTITLE6=Pussycat Moan
TTITLE7=Money Honey/or Honey Hust
TTITLE8=I'm Still Leaving You
TTITLE9=The Katie Lee
TTITLE10=So Far Away
EXTD=
EXTT0=
EXTT1=
EXTT2=
EXTT3=
EXTT4=
EXTT5=
EXTT6=
EXTT7=
EXTT8=
EXTT9=
EXTT10=
PLAYORDER=
